<svg width="85" height="81" viewBox="0 0 85 81" fill="none" xmlns="http://www.w3.org/2000/svg">
<g clip-path="url(#clip0_637_2105)">
<path d="M82.7692 25.9514C71.4646 25.2814 59.7501 30.9966 49.127 35.5472C36.1937 41.0817 23.3673 46.9133 10.4694 52.5496C8.84473 53.2544 8.86788 55.931 10.5156 56.2328L29.3111 59.5304L29.7558 55.7643C22.4858 57.4379 14.9373 57.4967 7.6421 55.9368L8.48626 58.708C13.015 52.7028 17.2595 46.5421 21.2197 40.2261C21.3653 40.0095 21.4655 39.7657 21.5142 39.5093C21.5629 39.253 21.559 38.9894 21.5029 38.7345C21.4468 38.4797 21.3396 38.2389 21.1878 38.0267C21.0359 37.8144 20.8426 37.6352 20.6195 37.4999C20.3964 37.3645 20.1482 37.2758 19.8898 37.2392C19.6314 37.2025 19.3683 37.2186 19.1164 37.2866C18.8644 37.3545 18.6289 37.4729 18.424 37.6344C18.2191 37.796 18.0491 37.9975 17.9243 38.2267C13.9794 44.5658 9.80547 50.7736 5.40263 56.85C4.66986 57.8531 5.08549 59.3817 6.277 59.6023C14.1943 61.2487 22.3675 61.2312 30.2777 59.5506C32.1876 59.1494 32.6288 56.1392 30.7264 55.7889L12.0012 52.3585L12.0557 56.0421C23.8137 50.6411 35.5869 45.266 47.3794 39.9833C58.6156 34.9749 70.4526 28.8766 82.505 28.0127C83.8648 27.9193 84.1035 26.0061 82.7498 25.9295L82.7692 25.9514Z" fill="#BFBFBF"/>
</g>
<defs>
<clipPath id="clip0_637_2105">
<rect width="35.631" height="80.1815" fill="white" transform="translate(24.1406 80.2083) rotate(-131.587)"/>
</clipPath>
</defs>
</svg>
