<svg width="76" height="75" viewBox="0 0 76 75" fill="none" xmlns="http://www.w3.org/2000/svg">
<path d="M62.8438 65.625C56.3333 65.625 49.901 64.2063 43.5469 61.3688C37.1927 58.5312 31.4115 54.5073 26.2031 49.2969C20.9948 44.0865 16.9719 38.3052 14.1344 31.9531C11.2969 25.601 9.87708 19.1688 9.875 12.6563C9.875 11.7188 10.1875 10.9375 10.8125 10.3125C11.4375 9.6875 12.2188 9.375 13.1563 9.375H25.8125C26.5417 9.375 27.1927 9.62292 27.7656 10.1187C28.3385 10.6146 28.6771 11.2 28.7812 11.875L30.8125 22.8125C30.9167 23.6458 30.8906 24.349 30.7344 24.9219C30.5781 25.4948 30.2917 25.9896 29.875 26.4062L22.2969 34.0625C23.3385 35.9896 24.575 37.851 26.0062 39.6469C27.4375 41.4427 29.0135 43.175 30.7344 44.8438C32.349 46.4583 34.0417 47.9562 35.8125 49.3375C37.5833 50.7188 39.4583 51.9813 41.4375 53.125L48.7812 45.7812C49.25 45.3125 49.8625 44.9615 50.6188 44.7281C51.375 44.4948 52.1167 44.4292 52.8438 44.5312L63.625 46.7188C64.3542 46.9271 64.9531 47.3052 65.4219 47.8531C65.8906 48.401 66.125 49.0125 66.125 49.6875V62.3438C66.125 63.2813 65.8125 64.0625 65.1875 64.6875C64.5625 65.3125 63.7813 65.625 62.8438 65.625Z" fill="#404040"/>
</svg>
