<svg width="76" height="75" viewBox="0 0 76 75" fill="none" xmlns="http://www.w3.org/2000/svg">
<path d="M63 12.5H13C9.5625 12.5 6.78125 15.3125 6.78125 18.75L6.75 56.25C6.75 59.6875 9.5625 62.5 13 62.5H63C66.4375 62.5 69.25 59.6875 69.25 56.25V18.75C69.25 15.3125 66.4375 12.5 63 12.5ZM61.75 25.7812L39.6562 39.5938C38.6562 40.2188 37.3438 40.2188 36.3438 39.5938L14.25 25.7812C13.9366 25.6053 13.6622 25.3677 13.4434 25.0827C13.2246 24.7976 13.0658 24.4712 12.9768 24.123C12.8878 23.7749 12.8703 23.4123 12.9255 23.0572C12.9807 22.7021 13.1073 22.3619 13.2978 22.0572C13.4882 21.7525 13.7385 21.4895 14.0335 21.2844C14.3285 21.0792 14.6621 20.936 15.014 20.8634C15.366 20.7909 15.729 20.7905 16.0811 20.8623C16.4332 20.9342 16.7671 21.0767 17.0625 21.2812L38 34.375L58.9375 21.2812C59.2329 21.0767 59.5668 20.9342 59.9189 20.8623C60.271 20.7905 60.634 20.7909 60.986 20.8634C61.3379 20.936 61.6715 21.0792 61.9665 21.2844C62.2615 21.4895 62.5118 21.7525 62.7022 22.0572C62.8927 22.3619 63.0193 22.7021 63.0745 23.0572C63.1297 23.4123 63.1122 23.7749 63.0232 24.123C62.9342 24.4712 62.7754 24.7976 62.5566 25.0827C62.3378 25.3677 62.0634 25.6053 61.75 25.7812Z" fill="#404040"/>
</svg>
