<svg width="76" height="75" viewBox="0 0 76 75" fill="none" xmlns="http://www.w3.org/2000/svg">
<path d="M38 6.25C45.4592 6.25 52.6129 9.21316 57.8874 14.4876C63.1618 19.7621 66.125 26.9158 66.125 34.375C66.125 43.9813 60.8875 51.8438 55.3688 57.4844C52.6115 60.2721 49.6029 62.7995 46.3813 65.0344L45.05 65.9406L44.425 66.3562L43.2469 67.1063L42.1969 67.7469L40.8969 68.5031C40.0145 69.0068 39.016 69.2717 38 69.2717C36.984 69.2717 35.9855 69.0068 35.1031 68.5031L33.8031 67.7469L32.1781 66.7469L31.5781 66.3562L30.2969 65.5031C26.8213 63.1516 23.5841 60.4659 20.6312 57.4844C15.1125 51.8406 9.875 43.9813 9.875 34.375C9.875 26.9158 12.8382 19.7621 18.1126 14.4876C23.3871 9.21316 30.5408 6.25 38 6.25ZM38 25C36.7689 25 35.5498 25.2425 34.4123 25.7136C33.2749 26.1848 32.2414 26.8753 31.3709 27.7459C30.5003 28.6164 29.8098 29.6499 29.3386 30.7873C28.8675 31.9248 28.625 33.1439 28.625 34.375C28.625 35.6061 28.8675 36.8252 29.3386 37.9627C29.8098 39.1001 30.5003 40.1336 31.3709 41.0041C32.2414 41.8747 33.2749 42.5652 34.4123 43.0364C35.5498 43.5075 36.7689 43.75 38 43.75C40.4864 43.75 42.871 42.7623 44.6291 41.0041C46.3873 39.246 47.375 36.8614 47.375 34.375C47.375 31.8886 46.3873 29.504 44.6291 27.7459C42.871 25.9877 40.4864 25 38 25Z" fill="#404040"/>
</svg>
