<svg width="38" height="38" viewBox="0 0 38 38" fill="none" xmlns="http://www.w3.org/2000/svg">
<path d="M6.11426 12.4736H21.6163" stroke="white" stroke-width="1.2" stroke-miterlimit="10" stroke-linecap="round" stroke-linejoin="round"/>
<path d="M6.11426 17.5889H18.9928" stroke="white" stroke-width="1.2" stroke-miterlimit="10" stroke-linecap="round" stroke-linejoin="round"/>
<path d="M6.11426 22.7046H18.9928" stroke="white" stroke-width="1.2" stroke-miterlimit="10" stroke-linecap="round" stroke-linejoin="round"/>
<mask id="mask0_1424_16994" style="mask-type:luminance" maskUnits="userSpaceOnUse" x="0" y="0" width="38" height="38">
<path d="M0 0H38V38H0V0Z" fill="white"/>
</mask>
<g mask="url(#mask0_1424_16994)">
<path d="M34.0125 9.78656V9.12668C34.0125 6.75354 32.0886 4.82964 29.7154 4.82964C27.3422 4.82964 25.4183 6.75354 25.4183 9.12668V9.78656C25.4183 12.3508 24.257 14.774 22.2654 16.3802C22.184 16.4458 22.1164 16.5267 22.0687 16.6197C21.8193 17.1072 22.1733 17.686 22.7209 17.686H36.7099C37.2575 17.686 37.6114 17.1072 37.3621 16.6197C37.3144 16.5267 37.2468 16.4458 37.1654 16.3802C35.1738 14.774 34.0125 12.3508 34.0125 9.78656Z" stroke="white" stroke-miterlimit="10" stroke-linecap="round" stroke-linejoin="round"/>
<path d="M23.8098 6.18072H4.45409C2.3016 6.18072 0.556641 7.92567 0.556641 10.0782V25.292C0.556641 27.4445 2.3016 29.1895 4.45409 29.1895H4.82288C5.16006 29.1895 5.41507 29.4945 5.35533 29.8264L4.39501 35.1583C4.3228 35.5592 4.80485 35.8194 5.10031 35.5388L11.4234 29.5365C11.6581 29.3137 11.9695 29.1895 12.2931 29.1895H29.1743C31.3268 29.1895 33.0718 27.4445 33.0718 25.292V20.5283" stroke="white" stroke-miterlimit="10" stroke-linecap="round" stroke-linejoin="round"/>
<path d="M31.462 5.20068V4.09044C31.462 3.12575 30.68 2.34378 29.7154 2.34378C28.7508 2.34378 27.9688 3.12575 27.9688 4.09044V5.20068" stroke="white" stroke-miterlimit="10" stroke-linecap="round" stroke-linejoin="round"/>
<path d="M26.71 17.6859C26.9758 19.1042 28.2198 20.1777 29.7152 20.1777C31.2107 20.1777 32.4546 19.1042 32.7204 17.6859" stroke="white" stroke-miterlimit="10" stroke-linecap="round" stroke-linejoin="round"/>
</g>
</svg>
