<svg width="35" height="35" viewBox="0 0 35 35" fill="none" xmlns="http://www.w3.org/2000/svg">
<path d="M22.2263 10.284C22.2263 9.96178 21.9651 9.70053 21.6429 9.70053H5.32418C5.00246 9.70053 4.74069 9.43876 4.74069 9.11704V5.03267C4.74069 4.71095 5.00246 4.44919 5.32418 4.44919H22.2452C22.5669 4.44919 22.8286 4.71095 22.8286 5.03267V7.90304C22.8286 8.22527 23.0899 8.48652 23.4121 8.48652C23.7343 8.48652 23.9956 8.22527 23.9956 7.90304V5.03267C23.9956 4.06752 23.2103 3.28223 22.2452 3.28223H5.32418C4.35902 3.28223 3.57373 4.06752 3.57373 5.03267V9.11704C3.57373 10.0822 4.35902 10.8675 5.32418 10.8675H21.6429C21.9651 10.8675 22.2263 10.6062 22.2263 10.284Z" fill="white"/>
<path d="M9.18974 14.4498C9.18974 13.6006 8.49883 12.9097 7.64957 12.9097H5.1139C4.26465 12.9097 3.57373 13.6006 3.57373 14.4498V16.2562C3.57373 17.1054 4.26465 17.7963 5.1139 17.7963H7.64957C8.49883 17.7963 9.18974 17.1054 9.18974 16.2562V14.4498ZM8.02278 16.2562C8.02278 16.462 7.85539 16.6294 7.64957 16.6294H5.1139C4.90808 16.6294 4.74069 16.462 4.74069 16.2562V14.4498C4.74069 14.244 4.90808 14.0766 5.1139 14.0766H7.64957C7.85539 14.0766 8.02278 14.244 8.02278 14.4498V16.2562Z" fill="white"/>
<path d="M16.5562 14.4498C16.5562 13.6006 15.8653 12.9097 15.016 12.9097H12.4804C11.6311 12.9097 10.9402 13.6006 10.9402 14.4498V16.2562C10.9402 17.1054 11.6311 17.7963 12.4804 17.7963H15.016C15.8653 17.7963 16.5562 17.1054 16.5562 16.2562V14.4498ZM15.3892 16.2562C15.3892 16.462 15.2218 16.6294 15.016 16.6294H12.4804C12.2745 16.6294 12.1071 16.462 12.1071 16.2562V14.4498C12.1071 14.244 12.2745 14.0766 12.4804 14.0766H15.016C15.2218 14.0766 15.3892 14.244 15.3892 14.4498V16.2562Z" fill="white"/>
<path d="M22.4555 12.9097H19.9198C19.0706 12.9097 18.3796 13.6006 18.3796 14.4498V16.2562C18.3796 17.1054 19.0706 17.7963 19.9198 17.7963H22.4555C23.3048 17.7963 23.9957 17.1054 23.9957 16.2562V14.4498C23.9957 13.6006 23.3047 12.9097 22.4555 12.9097ZM22.8287 16.2562C22.8287 16.462 22.6612 16.6294 22.4555 16.6294H19.9198C19.7141 16.6294 19.5466 16.462 19.5466 16.2562V14.4498C19.5466 14.244 19.7141 14.0766 19.9198 14.0766H22.4555C22.6612 14.0766 22.8287 14.244 22.8287 14.4498V16.2562Z" fill="white"/>
<path d="M9.18974 21.4513C9.18974 20.602 8.49883 19.9111 7.64957 19.9111H5.1139C4.26465 19.9111 3.57373 20.602 3.57373 21.4513V23.2576C3.57373 24.1069 4.26465 24.7978 5.1139 24.7978H7.64957C8.49883 24.7978 9.18974 24.1069 9.18974 23.2576V21.4513ZM8.02278 23.2576C8.02278 23.4634 7.85539 23.6308 7.64957 23.6308H5.1139C4.90808 23.6308 4.74069 23.4634 4.74069 23.2576V21.4513C4.74069 21.2455 4.90808 21.0781 5.1139 21.0781H7.64957C7.85539 21.0781 8.02278 21.2455 8.02278 21.4513V23.2576Z" fill="white"/>
<path d="M16.5562 21.4513C16.5562 20.602 15.8653 19.9111 15.016 19.9111H12.4804C11.6311 19.9111 10.9402 20.602 10.9402 21.4513V23.2576C10.9402 24.1069 11.6311 24.7978 12.4804 24.7978H15.016C15.8653 24.7978 16.5562 24.1069 16.5562 23.2576V21.4513ZM15.3892 23.2576C15.3892 23.4634 15.2218 23.6308 15.016 23.6308H12.4804C12.2745 23.6308 12.1071 23.4634 12.1071 23.2576V21.4513C12.1071 21.2455 12.2745 21.0781 12.4804 21.0781H15.016C15.2218 21.0781 15.3892 21.2455 15.3892 21.4513V23.2576Z" fill="white"/>
<path d="M7.64957 26.9131H5.1139C4.26465 26.9131 3.57373 27.604 3.57373 28.4533V30.2596C3.57373 31.1088 4.26465 31.7997 5.1139 31.7997H7.64957C8.49883 31.7997 9.18974 31.1088 9.18974 30.2596V28.4533C9.18974 27.604 8.49883 26.9131 7.64957 26.9131ZM8.02278 30.2596C8.02278 30.4654 7.85539 30.6328 7.64957 30.6328H5.1139C4.90808 30.6328 4.74069 30.4654 4.74069 30.2596V28.4533C4.74069 28.2474 4.90808 28.08 5.1139 28.08H7.64957C7.85539 28.08 8.02278 28.2474 8.02278 28.4533V30.2596Z" fill="white"/>
<path d="M15.016 26.9131H12.4804C11.6311 26.9131 10.9402 27.604 10.9402 28.4533V30.2596C10.9402 31.1088 11.6311 31.7997 12.4804 31.7997H15.016C15.8653 31.7997 16.5562 31.1088 16.5562 30.2596V28.4533C16.5562 27.604 15.8653 26.9131 15.016 26.9131ZM15.3892 30.2596C15.3892 30.4654 15.2218 30.6328 15.016 30.6328H12.4804C12.2745 30.6328 12.1071 30.4654 12.1071 30.2596V28.4533C12.1071 28.2474 12.2745 28.08 12.4804 28.08H15.016C15.2218 28.08 15.3892 28.2474 15.3892 28.4533V30.2596Z" fill="white"/>
<path d="M27.2779 22.0996C27.2779 21.7774 27.0166 21.5161 26.6944 21.5161C26.3722 21.5161 26.1109 21.7774 26.1109 22.0996V22.833C24.8699 23.0537 23.937 23.9627 23.937 25.0479C23.937 26.7619 25.463 27.0744 26.5773 27.3026C27.8794 27.5692 28.2848 27.7573 28.2848 28.414C28.2848 29.01 27.5565 29.5135 26.6943 29.5135C26.1054 29.5135 25.5649 29.2833 25.2835 28.9127C25.0886 28.656 24.7225 28.6059 24.4659 28.8007C24.2092 28.9956 24.1592 29.3616 24.354 29.6183C24.7543 30.1455 25.3873 30.5033 26.1108 30.6294V31.3624C26.1108 31.6846 26.3721 31.9459 26.6943 31.9459C27.0166 31.9459 27.2778 31.6846 27.2778 31.3624V30.629C28.5188 30.4083 29.4517 29.4992 29.4517 28.414C29.4517 26.7001 27.9257 26.3875 26.8114 26.1594C25.5093 25.8927 25.104 25.7047 25.104 25.048C25.104 24.452 25.8322 23.9484 26.6944 23.9484C27.2833 23.9484 27.8239 24.1787 28.1053 24.5493C28.3002 24.8059 28.6663 24.856 28.9228 24.6612C29.1795 24.4663 29.2296 24.1004 29.0347 23.8437C28.6345 23.3164 28.0015 22.9586 27.2779 22.8325V22.0996Z" fill="white"/>
<path d="M30.4294 19.2639C30.1417 19.1191 29.7908 19.2348 29.6458 19.5226C29.5008 19.8104 29.6167 20.1613 29.9045 20.3062C32.3331 21.5293 33.8419 23.9771 33.8419 26.6943C33.8419 30.6356 30.6355 33.8419 26.6943 33.8419C22.7531 33.8419 19.5466 30.6356 19.5466 26.6943C19.5466 22.753 22.7531 19.5466 26.6943 19.5466C26.9418 19.5466 27.0935 19.5831 27.283 19.4705C27.4559 19.3682 27.5621 19.185 27.5691 18.9902C27.5697 18.9722 27.5695 2.95439 27.5695 2.91741C27.5695 1.30875 26.2608 0 24.6521 0H2.91741C1.30875 0 0 1.30875 0 2.91741V32.0915C0 33.7002 1.30875 35.0089 2.91741 35.0089H19.3655C19.6878 35.0089 19.949 34.7477 19.949 34.4254C19.949 34.1032 19.6878 33.8419 19.3655 33.8419H2.91741C1.95226 33.8419 1.16696 33.0567 1.16696 32.0915V2.91741C1.16696 1.95226 1.95226 1.16696 2.91741 1.16696H24.6521C25.6173 1.16696 26.4026 1.95226 26.4026 2.91741V18.3854C21.9525 18.5396 18.3797 22.2072 18.3797 26.6943C18.3797 31.279 22.1097 35.0089 26.6943 35.0089C31.2789 35.0089 35.0089 31.279 35.0089 26.6943C35.0089 23.5336 33.2541 20.6865 30.4294 19.2639Z" fill="white"/>
<path d="M20.4218 8.75199C20.7441 8.75199 21.0053 8.49074 21.0053 8.16851V5.98045C21.0053 5.65823 20.7441 5.39697 20.4218 5.39697H19.8384C19.5161 5.39697 19.2549 5.65823 19.2549 5.98045C19.2549 6.30268 19.5161 6.56394 19.8384 6.56394V8.16851C19.8384 8.49074 20.0996 8.75199 20.4218 8.75199Z" fill="white"/>
</svg>
