<svg width="38" height="38" viewBox="0 0 38 38" fill="none" xmlns="http://www.w3.org/2000/svg">
<path d="M32.6562 31.4688V3.5625C32.6562 1.92553 31.3245 0.59375 29.6875 0.59375H3.5625C1.92553 0.59375 0.59375 1.92553 0.59375 3.5625V19.5938H5.34375V34.4375C5.34375 36.0745 6.67553 37.4062 8.3125 37.4062H34.4375C36.0745 37.4062 37.4062 36.0745 37.4062 34.4375V31.4688H32.6562ZM5.34375 18.4062H1.78125V3.5625C1.78125 2.58044 2.58044 1.78125 3.5625 1.78125C4.54456 1.78125 5.34375 2.58044 5.34375 3.5625V18.4062ZM10.0938 34.4375C10.0938 35.4196 9.29456 36.2188 8.3125 36.2188C7.33044 36.2188 6.53125 35.4196 6.53125 34.4375V3.5625C6.53125 2.89156 6.29909 2.27881 5.92206 1.78125H29.6875C30.6696 1.78125 31.4688 2.58044 31.4688 3.5625V31.4688H30.2812V21.9688H26.7188V31.4688H25.5312V24.3438H21.9688V31.4688H20.7812V25.5312H17.2188V31.4688H16.0312V27.9062H12.4688V31.4688H10.0938V34.4375ZM29.0938 31.4688H27.9062V23.1562H29.0938V31.4688ZM24.3438 31.4688H23.1562V25.5312H24.3438V31.4688ZM19.5938 31.4688H18.4062V26.7188H19.5938V31.4688ZM14.8438 31.4688H13.6562V29.0938H14.8438V31.4688ZM36.2188 34.4375C36.2188 35.4196 35.4196 36.2188 34.4375 36.2188H10.6863C11.0598 35.7224 11.2812 35.1055 11.2812 34.4375V32.6562H36.2188V34.4375Z" fill="white"/>
<path d="M10.0938 11.2812C9.43884 11.2812 8.90625 10.7487 8.90625 10.0938H7.71875C7.71875 11.1975 8.47816 12.119 9.5 12.3844V13.6562H10.6875V12.4688H12.4688V10.0938C12.4688 8.78394 11.4036 7.71875 10.0938 7.71875C9.43884 7.71875 8.90625 7.18616 8.90625 6.53125V5.34375H10.0938C10.7487 5.34375 11.2812 5.87634 11.2812 6.53125H12.4688C12.4688 5.42747 11.7093 4.50597 10.6875 4.24056V2.96875H9.5V4.15625H7.71875V6.53125C7.71875 7.84106 8.78394 8.90625 10.0938 8.90625C10.7487 8.90625 11.2812 9.43884 11.2812 10.0938V11.2812H10.0938Z" fill="white"/>
<path d="M30.2812 2.96875H13.6562V13.6562H30.2812V2.96875ZM29.0938 12.4688H14.8438V4.15625H29.0938V12.4688Z" fill="white"/>
<path d="M16.0312 5.34375H17.2188V6.53125H16.0312V5.34375Z" fill="white"/>
<path d="M18.4062 5.34375H27.9062V6.53125H18.4062V5.34375Z" fill="white"/>
<path d="M16.0312 7.71875H17.2188V8.90625H16.0312V7.71875Z" fill="white"/>
<path d="M18.4062 7.71875H27.9062V8.90625H18.4062V7.71875Z" fill="white"/>
<path d="M16.0312 10.0938H17.2188V11.2812H16.0312V10.0938Z" fill="white"/>
<path d="M18.4062 10.0938H27.9062V11.2812H18.4062V10.0938Z" fill="white"/>
<path d="M25.8793 18.4061L22.5626 21.7228L20.1876 19.3478L13.8303 25.7051L14.6699 26.5447L20.1876 21.027L22.5626 23.402L26.7189 19.2457L28.8219 21.3488L30.5034 14.6216L23.7762 16.3031L25.8793 18.4061ZM28.1783 19.026L26.099 16.9467L28.8718 16.2532L28.1783 19.026Z" fill="white"/>
<path d="M7.71875 16.0312H8.90625V17.2188H7.71875V16.0312Z" fill="white"/>
<path d="M10.0938 16.0312H11.2812V17.2188H10.0938V16.0312Z" fill="white"/>
<path d="M12.4688 16.0312H13.6562V17.2188H12.4688V16.0312Z" fill="white"/>
<path d="M7.71875 18.4062H13.6562V19.5938H7.71875V18.4062Z" fill="white"/>
<path d="M7.71875 20.7812H13.6562V21.9688H7.71875V20.7812Z" fill="white"/>
<path d="M33.8438 33.8438H35.0312V35.0312H33.8438V33.8438Z" fill="white"/>
<path d="M31.4688 33.8438H32.6562V35.0312H31.4688V33.8438Z" fill="white"/>
<path d="M29.0938 33.8438H30.2812V35.0312H29.0938V33.8438Z" fill="white"/>
<path d="M2.96875 16.0312H4.15625V17.2188H2.96875V16.0312Z" fill="white"/>
<path d="M2.96875 13.6562H4.15625V14.8438H2.96875V13.6562Z" fill="white"/>
<path d="M2.96875 11.2812H4.15625V12.4688H2.96875V11.2812Z" fill="white"/>
</svg>
