<svg width="32" height="34" viewBox="0 0 32 34" fill="none" xmlns="http://www.w3.org/2000/svg">
<path d="M31.0214 23.9175C30.4441 23.4702 29.7681 23.1676 29.0499 23.0351C28.3317 22.9025 27.5922 22.9439 26.8933 23.1557L22.3923 24.6596C22.2954 24.1007 22.0045 23.5939 21.5709 23.2281C21.1373 22.8624 20.5886 22.6612 20.0214 22.6599C18.6676 22.6095 16.4234 22.9305 15.3033 22.0087C14.2352 21.3013 12.78 20.2452 11.3265 20.3029H5.11228C5.00283 19.669 4.66007 19.099 4.15147 18.7051C3.64286 18.3112 3.00525 18.122 2.36412 18.1747C1.72299 18.2273 1.1248 18.518 0.687265 18.9896C0.249733 19.4612 0.00455967 20.0794 0 20.7227V29.2491C0.0041272 29.8937 0.249933 30.5133 0.688828 30.9854C1.12772 31.4575 1.72777 31.7478 2.37035 31.7989C3.01293 31.8499 3.65129 31.6581 4.15924 31.2612C4.66719 30.8643 5.00776 30.2913 5.11363 29.6554L13.2518 32.7786C14.2849 33.0722 15.3512 33.2321 16.425 33.2546C17.1751 33.303 17.9221 33.1196 18.5645 32.7293L30.8005 26.5633C31.0372 26.4424 31.2392 26.2631 31.3872 26.0424C31.5353 25.8216 31.6247 25.5668 31.6468 25.3019C31.6689 25.037 31.6231 24.7708 31.5137 24.5286C31.4042 24.2863 31.2348 24.076 31.0214 23.9175ZM3.96718 29.2491C3.96264 29.6147 3.8142 29.9639 3.55404 30.2208C3.29388 30.4777 2.94295 30.6218 2.57729 30.6218C2.21164 30.6218 1.86071 30.4777 1.60056 30.2208C1.3404 29.9638 1.19198 29.6147 1.18745 29.2491V20.7227C1.19199 20.357 1.34042 20.0079 1.60059 19.751C1.86075 19.494 2.21168 19.3499 2.57734 19.3499C2.94299 19.3499 3.29392 19.494 3.55407 19.751C3.81423 20.0079 3.96265 20.3571 3.96718 20.7227V29.2491ZM30.2661 25.5028L17.9803 31.6943C17.9434 31.7127 17.9085 31.7351 17.8763 31.761C17.2092 32.2956 15.0139 32.0248 13.6487 31.6589L5.15468 28.3993V21.4904H11.3265C11.8307 21.4907 12.3274 21.6128 12.7743 21.8464C14.3903 22.705 15.5267 23.9116 17.4223 23.8473L20.0214 23.8474C20.3445 23.8516 20.653 23.9829 20.8801 24.2129C21.1071 24.443 21.2344 24.7531 21.2344 25.0763C21.2344 25.3995 21.1071 25.7097 20.8801 25.9398C20.653 26.1698 20.3445 26.3011 20.0213 26.3053H12.0498C11.8923 26.3053 11.7413 26.3678 11.63 26.4792C11.5186 26.5905 11.456 26.7416 11.456 26.899C11.456 27.0565 11.5186 27.2075 11.63 27.3189C11.7413 27.4302 11.8923 27.4928 12.0498 27.4928H20.0214C20.5063 27.4917 20.9796 27.3444 21.3795 27.0701C21.7793 26.7957 22.0872 26.4072 22.2627 25.9551L27.2678 24.2828C27.7899 24.1307 28.3409 24.1061 28.8745 24.211C29.4081 24.316 29.9087 24.5474 30.3343 24.8859C30.3841 24.9237 30.4233 24.9737 30.448 25.0312C30.4727 25.0886 30.482 25.1515 30.4752 25.2137C30.4683 25.2758 30.4454 25.3351 30.4088 25.3858C30.3722 25.4365 30.323 25.4768 30.2661 25.5028Z" fill="white"/>
<path d="M9.48932 11.563L10.7525 11.7161C10.921 12.35 11.1734 12.9586 11.5028 13.5258L10.7217 14.5219C10.5249 14.7706 10.426 15.0827 10.4439 15.3994C10.4617 15.716 10.595 16.0151 10.8186 16.24L11.5883 17.01C11.8125 17.2324 12.1104 17.365 12.4256 17.3829C12.7409 17.4007 13.0518 17.3025 13.2997 17.1068L14.3005 16.3229C14.8675 16.6523 15.4759 16.9046 16.1096 17.0732L16.2626 18.3355C16.3003 18.6494 16.4516 18.9386 16.688 19.1485C16.9244 19.3584 17.2294 19.4745 17.5455 19.4749H18.631C18.947 19.4745 19.252 19.3585 19.4883 19.1487C19.7247 18.9389 19.876 18.6498 19.9139 18.3361L20.0672 17.0732C20.7009 16.9046 21.3093 16.6522 21.8763 16.3229L22.8728 17.1033C23.1213 17.3005 23.4335 17.3996 23.7502 17.3818C24.0669 17.3641 24.3661 17.2307 24.5911 17.0071L25.3608 16.237C25.583 16.0128 25.7156 15.7151 25.7335 15.3999C25.7514 15.0847 25.6534 14.7739 25.4579 14.526L24.6737 13.5252C25.0031 12.9582 25.2555 12.3498 25.424 11.7161L26.6857 11.563C26.9998 11.5255 27.2892 11.3742 27.4993 11.1378C27.7093 10.9013 27.8255 10.5961 27.8257 10.2798V9.19443C27.8252 8.87841 27.7091 8.5735 27.4993 8.33714C27.2896 8.10079 27.0006 7.94931 26.6869 7.91126L25.424 7.75818C25.2554 7.12465 25.0031 6.51645 24.6737 5.94968L25.4548 4.95294C25.6518 4.70442 25.7509 4.39219 25.733 4.07551C25.7152 3.75882 25.5817 3.4597 25.3579 3.23489L24.5882 2.46488C24.3638 2.24305 24.0661 2.11075 23.751 2.09282C23.436 2.07488 23.1252 2.17254 22.8771 2.36746L21.8763 3.15198C21.3093 2.8226 20.7009 2.57027 20.0672 2.40167L19.9139 1.13936C19.8762 0.825499 19.7248 0.536304 19.4885 0.326389C19.2521 0.116474 18.9471 0.000369077 18.631 0H17.5455C17.2295 0.000348903 16.9245 0.116376 16.6882 0.32618C16.4518 0.535984 16.3005 0.82505 16.2626 1.13881L16.1096 2.40169C15.4759 2.57029 14.8675 2.82262 14.3005 3.15199L13.3032 2.37038C13.0546 2.17365 12.7425 2.07491 12.4259 2.09286C12.1094 2.11081 11.8105 2.24421 11.5857 2.46779L10.816 3.2378C10.5936 3.4619 10.4609 3.75965 10.4429 4.07487C10.425 4.3901 10.523 4.70098 10.7186 4.94888L11.5028 5.9491C11.1735 6.51613 10.9211 7.12451 10.7525 7.75818L9.48958 7.91126C9.1759 7.94933 8.88697 8.10082 8.67726 8.33718C8.46755 8.57354 8.35153 8.87844 8.35107 9.19443V10.2799C8.35125 10.5959 8.46714 10.9009 8.67685 11.1373C8.88656 11.3737 9.17557 11.5252 9.48932 11.563ZM9.5386 9.19443C9.53908 9.16875 9.54882 9.14411 9.56603 9.12504C9.58324 9.10597 9.60675 9.09375 9.63224 9.09064L11.3062 8.8877C11.4297 8.87272 11.5455 8.81933 11.637 8.73507C11.7286 8.6508 11.7913 8.5399 11.8165 8.41804C11.9757 7.63988 12.2828 6.89955 12.7213 6.23728C12.7901 6.13332 12.8245 6.01033 12.8195 5.88576C12.8145 5.76119 12.7704 5.64134 12.6935 5.54323L11.6501 4.21191C11.6349 4.19176 11.6274 4.16688 11.6289 4.14171C11.6304 4.11654 11.6408 4.09272 11.6582 4.07449L12.4227 3.31028C12.4416 3.29135 12.4668 3.28006 12.4935 3.27856C12.5202 3.27706 12.5465 3.28546 12.5674 3.30215L13.8946 4.3424C13.9927 4.41914 14.1125 4.46311 14.237 4.4681C14.3615 4.4731 14.4844 4.43886 14.5884 4.37023C15.2507 3.93196 15.991 3.62489 16.7691 3.46569C16.891 3.44054 17.0018 3.37776 17.086 3.2862C17.1703 3.19464 17.2236 3.07894 17.2385 2.95544L17.4414 1.28088C17.4447 1.25542 17.457 1.232 17.4761 1.21486C17.4952 1.19772 17.5199 1.18801 17.5455 1.1875H18.631C18.6567 1.18803 18.6814 1.19782 18.7005 1.21507C18.7196 1.23232 18.7319 1.25588 18.7351 1.28143L18.9383 2.95541C18.9533 3.0789 19.0066 3.19457 19.0908 3.28612C19.175 3.37767 19.2859 3.44047 19.4077 3.46567C20.1858 3.62482 20.9261 3.93189 21.5884 4.37021C21.6923 4.43909 21.8153 4.47348 21.9398 4.46849C22.0644 4.46349 22.1842 4.41936 22.2822 4.34238L23.6132 3.29925C23.6335 3.28409 23.6585 3.27659 23.6838 3.27807C23.7091 3.27956 23.7331 3.28994 23.7515 3.30737L24.5157 4.07218C24.5344 4.09103 24.5456 4.11611 24.547 4.14264C24.5483 4.16916 24.5399 4.19527 24.5233 4.21598L23.4833 5.54321C23.4065 5.64136 23.3624 5.76119 23.3574 5.88575C23.3525 6.01031 23.3868 6.13329 23.4555 6.23727C23.8938 6.89962 24.2009 7.63993 24.3601 8.41803C24.3852 8.53989 24.448 8.65078 24.5395 8.73505C24.6311 8.81932 24.7468 8.87271 24.8703 8.88768L26.5443 9.09063C26.5698 9.09368 26.5934 9.10587 26.6107 9.12494C26.6279 9.14402 26.6377 9.16869 26.6382 9.19442V10.2799C26.6378 10.3056 26.628 10.3304 26.6106 10.3495C26.5933 10.3686 26.5696 10.3807 26.544 10.3837L24.87 10.5872C24.7466 10.6023 24.631 10.6558 24.5395 10.74C24.448 10.8242 24.3853 10.9351 24.3601 11.0568C24.2007 11.8349 23.8937 12.5752 23.4555 13.2376C23.3868 13.3416 23.3525 13.4645 23.3574 13.5891C23.3624 13.7137 23.4065 13.8335 23.4833 13.9316L24.5264 15.263C24.5418 15.283 24.5495 15.3079 24.548 15.3332C24.5465 15.3584 24.536 15.3823 24.5183 15.4004L23.7544 16.1646C23.7354 16.1835 23.7101 16.1946 23.6833 16.196C23.6566 16.1974 23.6303 16.1889 23.6094 16.1721L22.2822 15.1325C22.1842 15.0554 22.0644 15.0112 21.9398 15.0062C21.8152 15.0012 21.6922 15.0356 21.5884 15.1047C20.9261 15.543 20.1858 15.8501 19.4077 16.0092C19.2858 16.0344 19.175 16.0972 19.0908 16.1887C19.0066 16.2803 18.9532 16.396 18.9383 16.5195L18.735 18.194C18.7318 18.2195 18.7194 18.2429 18.7003 18.26C18.6812 18.2772 18.6566 18.2869 18.631 18.2874H17.5455C17.5198 18.2868 17.4951 18.277 17.476 18.2598C17.4569 18.2425 17.4446 18.219 17.4414 18.1934L17.2385 16.5195C17.2236 16.396 17.1703 16.2802 17.086 16.1887C17.0018 16.0971 16.891 16.0343 16.7691 16.0092C15.991 15.85 15.2507 15.5429 14.5884 15.1047C14.4844 15.0359 14.3615 15.0016 14.237 15.0066C14.1125 15.0116 13.9927 15.0556 13.8946 15.1325L12.5633 16.1756C12.543 16.1908 12.5181 16.1983 12.4928 16.1968C12.4676 16.1953 12.4436 16.1849 12.4253 16.1675L11.6614 15.4033C11.6425 15.3844 11.6313 15.3593 11.6298 15.3326C11.6283 15.306 11.6366 15.2798 11.6533 15.2589L12.6935 13.9317C12.7704 13.8335 12.8145 13.7137 12.8195 13.5891C12.8245 13.4645 12.7902 13.3416 12.7213 13.2376C12.283 12.5753 11.9758 11.8349 11.8165 11.0568C11.7913 10.9351 11.7285 10.8243 11.637 10.74C11.5456 10.6558 11.43 10.6023 11.3065 10.5872L9.6314 10.3837C9.60598 10.3806 9.58256 10.3683 9.56549 10.3492C9.54843 10.3301 9.53888 10.3055 9.53863 10.2799L9.5386 9.19443Z" fill="white"/>
<path d="M18.0883 14.4189C19.3295 14.4174 20.5193 13.9237 21.3969 13.0461C22.2745 12.1684 22.7682 10.9785 22.7696 9.73733C22.5121 3.5274 13.6635 3.52921 13.407 9.73737C13.4084 10.9785 13.902 12.1684 14.7796 13.0461C15.6573 13.9237 16.8471 14.4175 18.0883 14.4189ZM18.0883 6.24384C19.0145 6.24487 19.9026 6.61325 20.5575 7.26818C21.2125 7.92311 21.581 8.81109 21.5821 9.73733C21.4181 14.3618 14.7577 14.3606 14.5945 9.73728C14.5956 8.81104 14.9641 7.92306 15.6191 7.26814C16.274 6.61322 17.1621 6.24485 18.0883 6.24384Z" fill="white"/>
</svg>
