<svg width="32" height="38" viewBox="0 0 32 38" fill="none" xmlns="http://www.w3.org/2000/svg">
<path d="M30.6204 5.37612L12.0817 13.0097C11.5706 13.2201 10.9817 13.0509 10.6604 12.601L8.92585 10.1727C8.49182 9.56502 7.79105 9.20439 7.04433 9.20439M7.04433 9.20439C6.05856 9.20439 5.25952 10.0035 5.25952 10.9892V36.197C5.25952 36.8541 5.79226 37.3869 6.4494 37.3869H30.2473C30.9044 37.3869 31.4371 36.8541 31.4371 36.197V6.44999C31.4371 5.71277 30.7737 5.15301 30.047 5.27703L7.04433 9.20439Z" stroke="white" stroke-miterlimit="10" stroke-linecap="round" stroke-linejoin="round"/>
<path d="M23.1079 2.87988H4.06951C3.41238 2.87988 2.87964 3.41263 2.87964 4.06976V33.8171C2.87964 34.4742 3.41238 35.007 4.06951 35.007H5.25939" stroke="white" stroke-miterlimit="10" stroke-linecap="round" stroke-linejoin="round"/>
<path d="M29.0574 5.27693V4.06976C29.0574 3.41263 28.5247 2.87988 27.8675 2.87988H25.4878" stroke="white" stroke-miterlimit="10" stroke-linecap="round" stroke-linejoin="round"/>
<path d="M26.6776 2.87982V1.68987C26.6776 1.03274 26.1449 0.5 25.4877 0.5H1.68987C1.03274 0.5 0.5 1.03274 0.5 1.68987V31.4372C0.5 32.0943 1.03274 32.6271 1.68987 32.6271H2.87975" stroke="white" stroke-miterlimit="10" stroke-linecap="round" stroke-linejoin="round"/>
<path d="M16.9543 23.4988L13.5887 20.1333L10.2231 23.4988" stroke="white" stroke-miterlimit="10" stroke-linecap="round" stroke-linejoin="round"/>
<path d="M10.9519 16.1702C11.7068 15.6669 12.6136 15.3735 13.5889 15.3735C16.2175 15.3735 18.3485 17.5045 18.3485 20.1331C18.3485 22.7617 16.2175 24.8927 13.5889 24.8927C10.9603 24.8927 8.82935 22.7617 8.82935 20.1331C8.82935 19.2967 9.0451 18.5106 9.42399 17.8276" stroke="white" stroke-miterlimit="10" stroke-linecap="round" stroke-linejoin="round"/>
<path d="M13.5887 20.1333H8.8291" stroke="white" stroke-miterlimit="10" stroke-linecap="round" stroke-linejoin="round"/>
<path d="M26.0826 17.7533H22.5129C21.8557 17.7533 21.323 17.2205 21.323 16.5634C21.323 15.9063 21.8557 15.3735 22.5129 15.3735H26.0826C26.7397 15.3735 27.2724 15.9063 27.2724 16.5634C27.2724 17.2205 26.7397 17.7533 26.0826 17.7533Z" stroke="white" stroke-miterlimit="10" stroke-linecap="round" stroke-linejoin="round"/>
<path d="M27.2724 20.1333H21.323" stroke="white" stroke-miterlimit="10" stroke-linecap="round" stroke-linejoin="round"/>
<path d="M27.2724 22.5132H21.323" stroke="white" stroke-miterlimit="10" stroke-linecap="round" stroke-linejoin="round"/>
<path d="M27.2724 24.8926H21.323" stroke="white" stroke-miterlimit="10" stroke-linecap="round" stroke-linejoin="round"/>
<path d="M27.2726 27.8677H14.1838" stroke="white" stroke-miterlimit="10" stroke-linecap="round" stroke-linejoin="round"/>
<path d="M27.2726 30.2476H14.1838" stroke="white" stroke-miterlimit="10" stroke-linecap="round" stroke-linejoin="round"/>
<path d="M27.2727 32.627H9.42432" stroke="white" stroke-miterlimit="10" stroke-linecap="round" stroke-linejoin="round"/>
<path d="M10.6142 30.2474C11.2713 30.2474 11.8041 29.7147 11.8041 29.0575C11.8041 28.4004 11.2713 27.8677 10.6142 27.8677C9.95704 27.8677 9.42432 28.4004 9.42432 29.0575C9.42432 29.7147 9.95704 30.2474 10.6142 30.2474Z" stroke="white" stroke-miterlimit="10" stroke-linecap="round" stroke-linejoin="round"/>
</svg>
