<svg width="36" height="36" viewBox="0 0 36 36" fill="none" xmlns="http://www.w3.org/2000/svg">
<path d="M33.6568 6.38999L30.8072 9.23956L26.0686 9.00906L25.8381 4.27119L28.6891 1.42019C29.1745 0.933293 28.8539 0.103298 28.1824 0.0478581C25.6504 -0.206199 23.2847 0.559539 21.6969 2.14739C21.2104 2.63369 20.7991 3.17504 20.4602 3.75273L20.3609 3.71098C19.8649 3.50117 19.3026 3.68244 19.0236 4.13917L17.7832 6.17305C16.4059 5.95967 15.0286 5.95967 13.7091 6.18732L12.4545 4.13845C12.1804 3.67958 11.6188 3.49475 11.1164 3.70242L7.94784 5.02051C7.44615 5.21819 7.16925 5.75985 7.30056 6.27153L7.8622 8.58801C6.75391 9.39443 5.78122 10.3664 4.99336 11.4726L2.65904 10.9202C2.14379 10.7832 1.61426 11.0501 1.40089 11.5546L0.0860004 14.7332C-0.124167 15.2406 0.0628072 15.8051 0.516683 16.0677L2.5577 17.3116C2.33932 18.6646 2.33932 20.0413 2.56983 21.375L0.510974 22.6425C0.0585254 22.9294 -0.119528 23.491 0.0863574 23.9741L1.41016 27.1555C1.61569 27.6422 2.14022 27.9113 2.65475 27.79L4.97909 27.2283C5.77908 28.3281 6.74892 29.3 7.86363 30.0886L7.29914 32.4401C7.18067 32.9567 7.44829 33.482 7.93856 33.6896L11.1264 35.0092C11.6132 35.2007 12.1731 35.0199 12.4523 34.5653L13.6884 32.5257C15.0343 32.7419 16.4109 32.7441 17.7583 32.5121L19.015 34.5653C19.2969 35.0249 19.8599 35.2083 20.3488 34.9978L23.5395 33.6875C24.0248 33.4827 24.2924 32.9582 24.1739 32.4336L23.6123 30.1186C24.7227 29.3107 25.6933 28.3373 26.4726 27.234L28.824 27.7985C29.3393 27.9156 29.878 27.6394 30.0657 27.1598L31.3867 23.9784C31.5944 23.491 31.4159 22.9294 30.9571 22.6382L28.9175 21.3922C29.128 20.042 29.128 18.6675 28.9039 17.3244L30.9492 16.0684C31.4081 15.7872 31.5894 15.2242 31.381 14.7318L31.3319 14.6143C31.9072 14.2762 32.446 13.866 32.9303 13.3815C34.5174 11.7951 35.2832 9.43082 35.0313 6.90239C34.9712 6.21241 34.1387 5.90812 33.6568 6.38999ZM28.3344 16.3881C27.9562 16.6158 27.7607 17.0461 27.8342 17.475C28.0269 18.7239 28.0269 19.9849 27.8356 21.2152C27.7614 21.6477 27.9512 22.0758 28.323 22.3092L30.3762 23.5538L29.0738 26.7309L26.7316 26.1686C26.3284 26.0694 25.8895 26.2257 25.6083 26.5846C24.8726 27.6016 23.9848 28.4922 22.9736 29.228C22.6232 29.4756 22.454 29.9095 22.5447 30.3519L23.1177 32.6763L19.9499 33.9929L18.6903 31.9348C18.465 31.5754 18.0456 31.3777 17.6155 31.4502C16.3588 31.6436 15.0957 31.6415 13.8504 31.4417C13.4286 31.3846 13.0111 31.5694 12.7742 31.9398L11.5367 33.9922L8.36674 32.6898L8.93266 30.3305C9.02258 29.9095 8.85273 29.477 8.50947 29.2337C7.48896 28.4836 6.59905 27.5923 5.86971 26.5896C5.61565 26.2314 5.17676 26.0672 4.74787 26.1679L2.42068 26.7316L1.09188 23.5723L3.14003 22.3113C3.51398 22.0865 3.71451 21.6477 3.63958 21.2295C3.44047 19.9834 3.44047 18.7239 3.64172 17.4736C3.70167 17.0382 3.5047 16.6143 3.14503 16.3981L1.09902 15.1528L2.39499 11.9835L4.7393 12.5387C5.1732 12.6401 5.60995 12.4752 5.85829 12.1234C6.60048 11.1043 7.49111 10.2137 8.51304 9.47007C8.86415 9.20745 9.02472 8.76856 8.92267 8.35608L8.35889 6.03674L11.5175 4.70651L12.7799 6.76894C13.0104 7.12933 13.42 7.31701 13.8618 7.25564C15.0878 7.06082 16.3517 7.06082 17.6034 7.25421C18.0302 7.32843 18.4698 7.13004 18.6917 6.7618L19.9349 4.72079L19.9691 4.73506C19.3733 6.17701 19.2304 7.811 19.521 9.27596C19.5488 9.42226 19.4988 9.57212 19.3839 9.68702L17.5619 11.5091C13.9875 10.6516 9.96746 12.3545 8.2861 16.2718C6.14759 21.34 9.82353 27.7362 16.1504 27.4103C17.9591 27.4103 20.5305 26.3681 22.1943 24.1804C23.4703 22.4769 24.0226 20.2903 23.71 18.1979C23.6837 17.972 23.6373 17.7409 23.5821 17.5086L25.3999 15.6902C25.5397 15.5456 25.719 15.5364 25.9152 15.5724C27.4246 15.8492 28.9981 15.6639 30.359 15.0957L30.3762 15.1342L28.3344 16.3881ZM16.6282 12.4428L8.82178 20.2492C8.67432 19.0899 8.8398 17.7804 9.29519 16.7014C10.4957 13.8982 13.0798 12.3817 15.7258 12.3817C16.0261 12.3817 16.3279 12.4019 16.6282 12.4428ZM14.8231 26.2678C17.53 23.5606 19.8611 21.2293 22.6389 18.4513C22.8758 20.2397 22.3969 22.0823 21.3193 23.5195C19.9104 25.3737 17.6545 26.3122 16.1233 26.3149C15.6345 26.3384 15.2434 26.327 14.8231 26.2678ZM32.1553 12.6065C30.626 14.1372 28.2915 14.9339 25.9908 14.4748C25.529 14.4047 24.981 14.5548 24.6164 14.9194L13.564 25.9718C11.6208 25.3786 9.8221 23.6902 9.11107 21.5156L20.1682 10.4578C20.5392 10.0753 20.6987 9.58632 20.5884 9.00687C20.1623 6.74726 20.9305 4.46378 22.4719 2.92241C23.6986 1.69637 25.4842 1.05124 27.4595 1.09977L24.9739 3.58538C24.8212 3.7381 24.737 3.94363 24.7377 4.19055L24.9867 9.32092C25.0067 9.73483 25.3464 10.0738 25.7568 10.0909L30.9135 10.3414C31.1369 10.3414 31.3374 10.2594 31.493 10.1038L33.9786 7.61817C34.0322 9.58711 33.3827 11.3798 32.1553 12.6065Z" fill="white"/>
</svg>
