<svg width="38" height="38" viewBox="0 0 38 38" fill="none" xmlns="http://www.w3.org/2000/svg">
<path d="M26.7188 33.8438H26.125C25.9675 33.8438 25.8165 33.7812 25.7052 33.6698C25.5938 33.5585 25.5312 33.4075 25.5312 33.25C25.5312 33.0925 25.5938 32.9415 25.7052 32.8302C25.8165 32.7188 25.9675 32.6562 26.125 32.6562H26.7188C26.8762 32.6562 27.0272 32.5937 27.1386 32.4823C27.2499 32.371 27.3125 32.22 27.3125 32.0625V26.7188C27.3125 26.5613 27.3751 26.4103 27.4864 26.2989C27.5978 26.1876 27.7488 26.125 27.9062 26.125C28.0637 26.125 28.2147 26.1876 28.3261 26.2989C28.4374 26.4103 28.5 26.5613 28.5 26.7188V32.0625C28.5 32.5349 28.3123 32.988 27.9783 33.322C27.6442 33.6561 27.1912 33.8438 26.7188 33.8438Z" fill="white"/>
<path d="M20.1875 33.8438H6.53125C6.05883 33.8438 5.60576 33.6561 5.27172 33.322C4.93767 32.988 4.75 32.5349 4.75 32.0625V2.96875C4.75 2.49633 4.93767 2.04327 5.27172 1.70922C5.60576 1.37517 6.05883 1.1875 6.53125 1.1875H26.7188C27.1912 1.1875 27.6442 1.37517 27.9783 1.70922C28.3123 2.04327 28.5 2.49633 28.5 2.96875V6.53125C28.5 6.68872 28.4374 6.83975 28.3261 6.95109C28.2147 7.06244 28.0637 7.125 27.9062 7.125C27.7488 7.125 27.5978 7.06244 27.4864 6.95109C27.3751 6.83975 27.3125 6.68872 27.3125 6.53125V2.96875C27.3125 2.81128 27.2499 2.66026 27.1386 2.54891C27.0272 2.43756 26.8762 2.375 26.7188 2.375H6.53125C6.37378 2.375 6.22276 2.43756 6.11141 2.54891C6.00006 2.66026 5.9375 2.81128 5.9375 2.96875V32.0625C5.9375 32.22 6.00006 32.371 6.11141 32.4823C6.22276 32.5937 6.37378 32.6562 6.53125 32.6562H20.1875C20.345 32.6562 20.496 32.7188 20.6073 32.8302C20.7187 32.9415 20.7812 33.0925 20.7812 33.25C20.7812 33.4075 20.7187 33.5585 20.6073 33.6698C20.496 33.7812 20.345 33.8438 20.1875 33.8438Z" fill="white"/>
<path d="M23.1563 26.125C21.7146 26.1245 20.292 25.7959 18.9961 25.1641C17.7003 24.5323 16.5652 23.6139 15.6769 22.4784C14.7886 21.3429 14.1705 20.0201 13.8692 18.6103C13.5679 17.2004 13.5915 15.7405 13.938 14.3411C14.2846 12.9418 14.9452 11.6396 15.8696 10.5333C16.794 9.42707 17.9581 8.54571 19.2737 7.95603C20.5892 7.36635 22.0218 7.08382 23.4627 7.12984C24.9036 7.17586 26.3152 7.54923 27.5904 8.22166C27.6609 8.25722 27.7237 8.30648 27.7749 8.36658C27.8261 8.42668 27.8649 8.49639 27.8889 8.57165C27.9128 8.6469 27.9215 8.72618 27.9145 8.80484C27.9074 8.8835 27.8847 8.95996 27.8478 9.02975C27.8108 9.09954 27.7603 9.16125 27.6992 9.21128C27.6381 9.2613 27.5676 9.29863 27.4919 9.32108C27.4161 9.34353 27.3367 9.35064 27.2582 9.34201C27.1797 9.33338 27.1037 9.30918 27.0347 9.27081C25.324 8.36979 23.3523 8.09442 21.4602 8.49225C19.5681 8.89008 17.8743 9.93614 16.6713 11.4498C15.4682 12.9634 14.8316 14.8497 14.8711 16.7827C14.9107 18.7158 15.624 20.5744 16.888 22.0376C18.1519 23.5007 19.8871 24.4766 21.7939 24.7967C23.7007 25.1168 25.6594 24.761 27.3319 23.7907C29.0043 22.8204 30.2854 21.2966 30.954 19.4824C31.6226 17.6682 31.6366 15.6775 30.9938 13.854C30.9465 13.7068 30.9584 13.5471 31.027 13.4086C31.0956 13.2701 31.2155 13.1638 31.3612 13.1123C31.507 13.0608 31.667 13.0682 31.8074 13.1328C31.9478 13.1975 32.0574 13.3143 32.113 13.4585C32.6182 14.8914 32.7725 16.4245 32.5631 17.9293C32.3537 19.4342 31.7866 20.8669 30.9094 22.1074C30.0322 23.3479 28.8704 24.3601 27.5215 25.0591C26.1725 25.7582 24.6756 26.1237 23.1563 26.125Z" fill="white"/>
<path d="M17.2189 19C17.1015 19 16.9867 18.9652 16.8891 18.8999C16.7914 18.8347 16.7154 18.742 16.6704 18.6335C16.6255 18.525 16.6137 18.4056 16.6366 18.2905C16.6595 18.1753 16.7161 18.0695 16.7991 17.9865L21.5491 13.2365C21.6611 13.1283 21.8111 13.0685 21.9667 13.0698C22.1224 13.0712 22.2713 13.1336 22.3814 13.2437C22.4915 13.3538 22.5539 13.5027 22.5553 13.6584C22.5567 13.8141 22.4968 13.9641 22.3886 14.0761L17.6386 18.8261C17.5273 18.9374 17.3763 19 17.2189 19Z" fill="white"/>
<path d="M24.3438 16.625C24.1863 16.625 24.0353 16.5624 23.924 16.4511L21.549 14.0761C21.4408 13.9641 21.381 13.8141 21.3823 13.6584C21.3837 13.5027 21.4461 13.3538 21.5562 13.2437C21.6663 13.1336 21.8152 13.0712 21.9709 13.0698C22.1266 13.0685 22.2766 13.1283 22.3886 13.2365L24.7636 15.6115C24.8466 15.6945 24.9031 15.8003 24.926 15.9155C24.9489 16.0306 24.9371 16.15 24.8922 16.2585C24.8473 16.367 24.7712 16.4597 24.6736 16.5249C24.576 16.5902 24.4612 16.625 24.3438 16.625Z" fill="white"/>
<path d="M24.3439 16.625C24.2265 16.625 24.1117 16.5902 24.0141 16.5249C23.9164 16.4597 23.8404 16.367 23.7954 16.2585C23.7505 16.15 23.7387 16.0306 23.7616 15.9155C23.7845 15.8003 23.8411 15.6945 23.9241 15.6115L32.2366 7.299C32.3486 7.19084 32.4986 7.13099 32.6542 7.13235C32.8099 7.1337 32.9588 7.19614 33.0689 7.30623C33.179 7.41632 33.2414 7.56524 33.2428 7.72091C33.2442 7.87659 33.1843 8.02658 33.0761 8.13856L24.7636 16.4511C24.6523 16.5624 24.5013 16.625 24.3439 16.625Z" fill="white"/>
<path d="M32.6562 11.2812C32.4988 11.2812 32.3478 11.2187 32.2364 11.1073C32.1251 10.996 32.0625 10.845 32.0625 10.6875V7.71875C32.0625 7.56128 32.1251 7.41026 32.2364 7.29891C32.3478 7.18756 32.4988 7.125 32.6562 7.125C32.8137 7.125 32.9647 7.18756 33.0761 7.29891C33.1874 7.41026 33.25 7.56128 33.25 7.71875V10.6875C33.25 10.845 33.1874 10.996 33.0761 11.1073C32.9647 11.2187 32.8137 11.2812 32.6562 11.2812Z" fill="white"/>
<path d="M32.6562 8.3125H29.6875C29.53 8.3125 29.379 8.24994 29.2677 8.13859C29.1563 8.02724 29.0938 7.87622 29.0938 7.71875C29.0938 7.56128 29.1563 7.41026 29.2677 7.29891C29.379 7.18756 29.53 7.125 29.6875 7.125H32.6562C32.8137 7.125 32.9647 7.18756 33.0761 7.29891C33.1874 7.41026 33.25 7.56128 33.25 7.71875C33.25 7.87622 33.1874 8.02724 33.0761 8.13859C32.9647 8.24994 32.8137 8.3125 32.6562 8.3125Z" fill="white"/>
<path d="M18.4062 21.9688C18.2488 21.9688 18.0978 21.9062 17.9864 21.7948C17.8751 21.6835 17.8125 21.5325 17.8125 21.375V19.5938C17.8125 19.4363 17.8751 19.2853 17.9864 19.1739C18.0978 19.0626 18.2488 19 18.4062 19C18.5637 19 18.7147 19.0626 18.8261 19.1739C18.9374 19.2853 19 19.4363 19 19.5938V21.375C19 21.5325 18.9374 21.6835 18.8261 21.7948C18.7147 21.9062 18.5637 21.9688 18.4062 21.9688Z" fill="white"/>
<path d="M20.7812 21.9688C20.6238 21.9688 20.4728 21.9062 20.3614 21.7948C20.2501 21.6835 20.1875 21.5325 20.1875 21.375V17.2188C20.1875 17.0613 20.2501 16.9103 20.3614 16.7989C20.4728 16.6876 20.6238 16.625 20.7812 16.625C20.9387 16.625 21.0897 16.6876 21.2011 16.7989C21.3124 16.9103 21.375 17.0613 21.375 17.2188V21.375C21.375 21.5325 21.3124 21.6835 21.2011 21.7948C21.0897 21.9062 20.9387 21.9688 20.7812 21.9688Z" fill="white"/>
<path d="M23.1562 21.9688C22.9988 21.9688 22.8478 21.9062 22.7364 21.7948C22.6251 21.6835 22.5625 21.5325 22.5625 21.375V17.8125C22.5625 17.655 22.6251 17.504 22.7364 17.3927C22.8478 17.2813 22.9988 17.2188 23.1562 17.2188C23.3137 17.2188 23.4647 17.2813 23.5761 17.3927C23.6874 17.504 23.75 17.655 23.75 17.8125V21.375C23.75 21.5325 23.6874 21.6835 23.5761 21.7948C23.4647 21.9062 23.3137 21.9688 23.1562 21.9688Z" fill="white"/>
<path d="M25.5312 21.9688C25.3738 21.9688 25.2228 21.9062 25.1114 21.7948C25.0001 21.6835 24.9375 21.5325 24.9375 21.375V18.4062C24.9375 18.2488 25.0001 18.0978 25.1114 17.9864C25.2228 17.8751 25.3738 17.8125 25.5312 17.8125C25.6887 17.8125 25.8397 17.8751 25.9511 17.9864C26.0624 18.0978 26.125 18.2488 26.125 18.4062V21.375C26.125 21.5325 26.0624 21.6835 25.9511 21.7948C25.8397 21.9062 25.6887 21.9688 25.5312 21.9688Z" fill="white"/>
<path d="M23.1562 30.875C22.9988 30.875 22.8478 30.8124 22.7364 30.7011C22.6251 30.5897 22.5625 30.4387 22.5625 30.2812V25.5312C22.5625 25.3738 22.6251 25.2228 22.7364 25.1114C22.8478 25.0001 22.9988 24.9375 23.1562 24.9375C23.3137 24.9375 23.4647 25.0001 23.5761 25.1114C23.6874 25.2228 23.75 25.3738 23.75 25.5312V30.2812C23.75 30.4387 23.6874 30.5897 23.5761 30.7011C23.4647 30.8124 23.3137 30.875 23.1562 30.875Z" fill="white"/>
<path d="M24.3438 36.8125H21.9688C21.8113 36.8125 21.6603 36.7499 21.5489 36.6386C21.4376 36.5272 21.375 36.3762 21.375 36.2188V30.2812C21.375 30.1238 21.4376 29.9728 21.5489 29.8614C21.6603 29.7501 21.8113 29.6875 21.9688 29.6875H24.3438C24.5012 29.6875 24.6522 29.7501 24.7636 29.8614C24.8749 29.9728 24.9375 30.1238 24.9375 30.2812V36.2188C24.9375 36.3762 24.8749 36.5272 24.7636 36.6386C24.6522 36.7499 24.5012 36.8125 24.3438 36.8125ZM22.5625 35.625H23.75V30.875H22.5625V35.625Z" fill="white"/>
<path d="M10.0938 8.3125C9.74145 8.3125 9.39707 8.20803 9.10414 8.01231C8.81122 7.81658 8.58291 7.53839 8.44809 7.21291C8.31327 6.88742 8.278 6.52928 8.34673 6.18375C8.41546 5.83822 8.5851 5.52083 8.83422 5.27172C9.08333 5.0226 9.40072 4.85296 9.74625 4.78423C10.0918 4.7155 10.4499 4.75077 10.7754 4.88559C11.1009 5.02041 11.3791 5.24872 11.5748 5.54164C11.7705 5.83457 11.875 6.17895 11.875 6.53125C11.875 6.68872 11.8124 6.83975 11.7011 6.9511C11.5897 7.06245 11.4387 7.125 11.2813 7.125C11.1238 7.125 10.9728 7.06245 10.8614 6.9511C10.7501 6.83975 10.6875 6.68872 10.6875 6.53125C10.6875 6.41382 10.6527 6.29902 10.5874 6.20138C10.5222 6.10374 10.4295 6.02764 10.321 5.9827C10.2125 5.93776 10.0931 5.926 9.97792 5.94891C9.86274 5.97182 9.75694 6.02837 9.67391 6.11141C9.59087 6.19444 9.53432 6.30024 9.51141 6.41542C9.4885 6.53059 9.50026 6.64998 9.5452 6.75847C9.59014 6.86696 9.66624 6.95969 9.76388 7.02494C9.86152 7.09018 9.97632 7.125 10.0938 7.125C10.2512 7.125 10.4022 7.18756 10.5136 7.29891C10.6249 7.41026 10.6875 7.56128 10.6875 7.71875C10.6875 7.87622 10.6249 8.02725 10.5136 8.1386C10.4022 8.24995 10.2512 8.3125 10.0938 8.3125Z" fill="white"/>
<path d="M10.0938 10.6875C9.62133 10.6875 9.16826 10.4998 8.83422 10.1658C8.50017 9.83173 8.3125 9.37867 8.3125 8.90625C8.3125 8.74878 8.37506 8.59776 8.48641 8.48641C8.59776 8.37506 8.74878 8.3125 8.90625 8.3125C9.06372 8.3125 9.21474 8.37506 9.32609 8.48641C9.43744 8.59776 9.5 8.74878 9.5 8.90625C9.5 9.02368 9.53482 9.13848 9.60006 9.23612C9.66531 9.33376 9.75804 9.40986 9.86653 9.4548C9.97503 9.49974 10.0944 9.5115 10.2096 9.48859C10.3248 9.46568 10.4306 9.40913 10.5136 9.32609C10.5966 9.24306 10.6532 9.13726 10.6761 9.02208C10.699 8.90691 10.6872 8.78753 10.6423 8.67903C10.5974 8.57054 10.5213 8.47781 10.4236 8.41256C10.326 8.34732 10.2112 8.3125 10.0938 8.3125C9.93628 8.3125 9.78525 8.24994 9.6739 8.13859C9.56256 8.02724 9.5 7.87622 9.5 7.71875C9.5 7.56128 9.56256 7.41026 9.6739 7.29891C9.78525 7.18756 9.93628 7.125 10.0938 7.125C10.5662 7.125 11.0192 7.31267 11.3533 7.64672C11.6873 7.98076 11.875 8.43383 11.875 8.90625C11.875 9.37867 11.6873 9.83173 11.3533 10.1658C11.0192 10.4998 10.5662 10.6875 10.0938 10.6875Z" fill="white"/>
<path d="M10.0938 5.9375C9.93628 5.9375 9.78525 5.87494 9.6739 5.76359C9.56256 5.65224 9.5 5.50122 9.5 5.34375V4.75C9.5 4.59253 9.56256 4.44151 9.6739 4.33016C9.78525 4.21881 9.93628 4.15625 10.0938 4.15625C10.2512 4.15625 10.4022 4.21881 10.5136 4.33016C10.6249 4.44151 10.6875 4.59253 10.6875 4.75V5.34375C10.6875 5.50122 10.6249 5.65224 10.5136 5.76359C10.4022 5.87494 10.2512 5.9375 10.0938 5.9375Z" fill="white"/>
<path d="M10.0938 11.2812C9.93628 11.2812 9.78525 11.2187 9.6739 11.1073C9.56256 10.996 9.5 10.845 9.5 10.6875V10.0938C9.5 9.93628 9.56256 9.78525 9.6739 9.6739C9.78525 9.56256 9.93628 9.5 10.0938 9.5C10.2512 9.5 10.4022 9.56256 10.5136 9.6739C10.6249 9.78525 10.6875 9.93628 10.6875 10.0938V10.6875C10.6875 10.845 10.6249 10.996 10.5136 11.1073C10.4022 11.2187 10.2512 11.2812 10.0938 11.2812Z" fill="white"/>
<path d="M18.4062 7.125H14.25C14.0925 7.125 13.9415 7.06244 13.8302 6.95109C13.7188 6.83974 13.6562 6.68872 13.6562 6.53125C13.6562 6.37378 13.7188 6.22276 13.8302 6.11141C13.9415 6.00006 14.0925 5.9375 14.25 5.9375H18.4062C18.5637 5.9375 18.7147 6.00006 18.8261 6.11141C18.9374 6.22276 19 6.37378 19 6.53125C19 6.68872 18.9374 6.83974 18.8261 6.95109C18.7147 7.06244 18.5637 7.125 18.4062 7.125Z" fill="white"/>
<path d="M11.875 15.4375H8.3125C8.15503 15.4375 8.00401 15.3749 7.89266 15.2636C7.78131 15.1522 7.71875 15.0012 7.71875 14.8438C7.71875 14.6863 7.78131 14.5353 7.89266 14.4239C8.00401 14.3126 8.15503 14.25 8.3125 14.25H11.875C12.0325 14.25 12.1835 14.3126 12.2948 14.4239C12.4062 14.5353 12.4688 14.6863 12.4688 14.8438C12.4688 15.0012 12.4062 15.1522 12.2948 15.2636C12.1835 15.3749 12.0325 15.4375 11.875 15.4375Z" fill="white"/>
<path d="M11.875 19.5938H8.3125C8.15503 19.5938 8.00401 19.5312 7.89266 19.4198C7.78131 19.3085 7.71875 19.1575 7.71875 19C7.71875 18.8425 7.78131 18.6915 7.89266 18.5802C8.00401 18.4688 8.15503 18.4062 8.3125 18.4062H11.875C12.0325 18.4062 12.1835 18.4688 12.2948 18.5802C12.4062 18.6915 12.4688 18.8425 12.4688 19C12.4688 19.1575 12.4062 19.3085 12.2948 19.4198C12.1835 19.5312 12.0325 19.5938 11.875 19.5938Z" fill="white"/>
<path d="M14.25 23.75H8.3125C8.15503 23.75 8.00401 23.6874 7.89266 23.5761C7.78131 23.4647 7.71875 23.3137 7.71875 23.1562C7.71875 22.9988 7.78131 22.8478 7.89266 22.7364C8.00401 22.6251 8.15503 22.5625 8.3125 22.5625H14.25C14.4075 22.5625 14.5585 22.6251 14.6698 22.7364C14.7812 22.8478 14.8438 22.9988 14.8438 23.1562C14.8438 23.3137 14.7812 23.4647 14.6698 23.5761C14.5585 23.6874 14.4075 23.75 14.25 23.75Z" fill="white"/>
<path d="M20.1875 27.9062H8.3125C8.15503 27.9062 8.00401 27.8437 7.89266 27.7323C7.78131 27.621 7.71875 27.47 7.71875 27.3125C7.71875 27.155 7.78131 27.004 7.89266 26.8927C8.00401 26.7813 8.15503 26.7188 8.3125 26.7188H20.1875C20.345 26.7188 20.496 26.7813 20.6073 26.8927C20.7187 27.004 20.7812 27.155 20.7812 27.3125C20.7812 27.47 20.7187 27.621 20.6073 27.7323C20.496 27.8437 20.345 27.9062 20.1875 27.9062Z" fill="white"/>
<path d="M27.9062 21.9688C27.7488 21.9688 27.5978 21.9062 27.4864 21.7948C27.3751 21.6835 27.3125 21.5325 27.3125 21.375V14.8438C27.3125 14.6863 27.3751 14.5353 27.4864 14.4239C27.5978 14.3126 27.7488 14.25 27.9062 14.25C28.0637 14.25 28.2147 14.3126 28.3261 14.4239C28.4374 14.5353 28.5 14.6863 28.5 14.8438V21.375C28.5 21.5325 28.4374 21.6835 28.3261 21.7948C28.2147 21.9062 28.0637 21.9688 27.9062 21.9688Z" fill="white"/>
</svg>
