<svg width="36" height="36" viewBox="0 0 36 36" fill="none" xmlns="http://www.w3.org/2000/svg">
<path d="M26.1249 35.625C23.4923 35.625 21.0413 34.5646 19.2232 32.6408C19.051 32.4591 19.0118 32.1896 19.1234 31.9675C19.3788 31.4581 20.2409 30.248 21.1481 29.9654L23.7499 29.032V28.7672C22.9911 28.0903 22.5624 27.1427 22.5624 26.1238V25.5301C22.5624 25.3614 22.5565 25.1845 22.5518 25.0016C22.5209 23.9376 22.4805 22.6136 23.3664 21.7039C23.9696 21.0817 24.8709 20.7812 26.1249 20.7812C27.3789 20.7812 28.2803 21.0829 28.8835 21.7039C29.7682 22.6148 29.729 23.9388 29.6981 25.0016C29.6934 25.1845 29.6874 25.3626 29.6874 25.5312V26.125C29.6874 27.1427 29.2588 28.0903 28.4999 28.7684V29.0332L31.1255 29.9761C32.0244 30.2622 32.9068 31.5364 33.1253 31.9675C33.2381 32.1908 33.1989 32.4615 33.0267 32.6432C31.2086 34.5658 28.7576 35.625 26.1249 35.625ZM20.4036 32.1433C21.9568 33.6264 23.972 34.4375 26.1249 34.4375C28.2779 34.4375 30.2919 33.6264 31.8451 32.1444C31.5352 31.7063 31.0554 31.198 30.7431 31.0982L27.7043 30.0069C27.4704 29.9238 27.3124 29.6994 27.3124 29.4488V28.4858C27.3124 28.2993 27.3991 28.1236 27.5488 28.0119C28.1532 27.5571 28.4999 26.8672 28.4999 26.125V25.5312C28.4999 25.3531 28.5059 25.1631 28.5118 24.9672C28.5368 24.0837 28.5676 23.0814 28.0321 22.5304C27.6699 22.1576 27.0286 21.9688 26.1249 21.9688C25.2213 21.9688 24.58 22.1576 24.219 22.5316C23.6834 23.0826 23.7131 24.0849 23.7393 24.9684C23.744 25.1631 23.7499 25.3519 23.7499 25.5312V26.125C23.7499 26.8684 24.0967 27.5571 24.7011 28.0131C24.8508 28.1248 24.9374 28.3005 24.9374 28.4869V29.45C24.9374 29.7006 24.7795 29.9238 24.5444 30.0093L21.5258 31.0935C21.1849 31.198 20.7076 31.7063 20.4036 32.1433Z" fill="white"/>
<path d="M18.1129 30.5781C17.8909 30.5781 17.6807 30.4546 17.5786 30.2433C16.9456 28.9323 16.625 27.5476 16.625 26.125C16.625 20.8869 20.8869 16.625 26.125 16.625C31.3631 16.625 35.625 20.8869 35.625 26.125C35.625 27.5678 35.3103 28.9536 34.6892 30.2421C34.5479 30.5377 34.1881 30.6624 33.8972 30.5188C33.6015 30.3774 33.4768 30.0224 33.6205 29.7267C34.1632 28.5986 34.4375 27.3873 34.4375 26.125C34.4375 21.5424 30.7076 17.8125 26.125 17.8125C21.5424 17.8125 17.8125 21.5424 17.8125 26.125C17.8125 27.3671 18.0927 28.5784 18.6473 29.7255C18.7886 30.0212 18.6663 30.3763 18.3706 30.5188C18.2875 30.5591 18.1996 30.5781 18.1129 30.5781Z" fill="white"/>
<path d="M9.50012 19C6.86743 19 4.41643 17.9396 2.59718 16.0146C2.42499 15.8329 2.3858 15.5646 2.49862 15.3413C2.75393 14.8319 3.61724 13.6218 4.52449 13.3404L7.12512 12.407V12.1422C6.3663 11.4641 5.93762 10.5165 5.93762 9.5V8.90625C5.93762 8.73763 5.93287 8.56069 5.92693 8.37781C5.89605 7.31381 5.85568 5.98975 6.74155 5.07894C7.3448 4.45787 8.24612 4.15625 9.50012 4.15625C10.7541 4.15625 11.6554 4.45787 12.2587 5.07894C13.1434 5.99094 13.1042 7.31381 13.0733 8.37781C13.0674 8.56069 13.0626 8.73763 13.0626 8.90625V9.5C13.0626 10.5165 12.6339 11.4641 11.8751 12.1422V12.407L14.5007 13.3499C15.402 13.6372 16.2843 14.9102 16.5004 15.3413C16.6132 15.5646 16.5741 15.8353 16.4031 16.0158C14.5838 17.9408 12.134 19 9.50012 19ZM3.77874 15.5182C5.3308 17.0014 7.34718 17.8125 9.50012 17.8125C11.6531 17.8125 13.6682 17.0014 15.2203 15.5194C14.9104 15.0813 14.4318 14.5742 14.1195 14.4744L11.0795 13.3831C10.8456 13.2988 10.6876 13.0744 10.6876 12.8238V11.8607C10.6876 11.6743 10.7743 11.4997 10.9239 11.3869C11.5284 10.9309 11.8751 10.2422 11.8751 9.5V8.90625C11.8751 8.72694 11.8799 8.53812 11.887 8.34219C11.9119 7.45869 11.9428 6.45644 11.4072 5.90544C11.0451 5.53256 10.4026 5.34375 9.50012 5.34375C8.59762 5.34375 7.95518 5.53256 7.59418 5.90663C7.05743 6.45762 7.0883 7.45869 7.11324 8.34219C7.12037 8.53812 7.12512 8.72694 7.12512 8.90625V9.5C7.12512 10.2422 7.47187 10.9309 8.0763 11.3881C8.22593 11.5009 8.31262 11.6755 8.31262 11.8619V12.825C8.31262 13.0756 8.15468 13.2988 7.91955 13.3843L4.90093 14.4685C4.56012 14.573 4.08274 15.0801 3.77874 15.5182Z" fill="white"/>
<path d="M1.48794 13.9531C1.26587 13.9531 1.05569 13.8296 0.953562 13.6171C0.320625 12.3061 0 10.9214 0 9.5C0 4.26075 4.26194 0 9.5 0C14.7381 0 19 4.26194 19 9.5C19 10.9416 18.6841 12.3262 18.0654 13.6159C17.9217 13.9127 17.5691 14.0363 17.2722 13.8938C16.9765 13.7512 16.8518 13.3962 16.9943 13.1017C17.537 11.9736 17.8125 10.7623 17.8125 9.5C17.8125 4.91625 14.0826 1.1875 9.5 1.1875C4.91744 1.1875 1.1875 4.91625 1.1875 9.5C1.1875 10.7409 1.46775 11.9522 2.02231 13.1005C2.16363 13.3962 2.04131 13.7512 1.74563 13.8938C1.6625 13.9329 1.57463 13.9531 1.48794 13.9531Z" fill="white"/>
<path d="M5.34375 28.5011C5.016 28.5011 4.75 28.2351 4.75 27.9073V25.5703C4.75 25.2426 5.016 24.9766 5.34375 24.9766C5.6715 24.9766 5.9375 25.2426 5.9375 25.5703V27.9073C5.9375 28.2351 5.6715 28.5011 5.34375 28.5011Z" fill="white"/>
<path d="M30.2812 10.6885C29.9535 10.6885 29.6875 10.4225 29.6875 10.0947V7.71973C29.6875 7.39198 29.9535 7.12598 30.2812 7.12598C30.609 7.12598 30.875 7.39198 30.875 7.71973V10.0947C30.875 10.4225 30.609 10.6885 30.2812 10.6885Z" fill="white"/>
<path d="M5.34375 30.875C5.67167 30.875 5.9375 30.6092 5.9375 30.2812C5.9375 29.9533 5.67167 29.6875 5.34375 29.6875C5.01583 29.6875 4.75 29.9533 4.75 30.2812C4.75 30.6092 5.01583 30.875 5.34375 30.875Z" fill="white"/>
<path d="M30.2812 5.9375C30.6092 5.9375 30.875 5.67167 30.875 5.34375C30.875 5.01583 30.6092 4.75 30.2812 4.75C29.9533 4.75 29.6875 5.01583 29.6875 5.34375C29.6875 5.67167 29.9533 5.9375 30.2812 5.9375Z" fill="white"/>
<path d="M35.0312 9.5H33.25V6.48494C33.25 4.45787 32.7322 2.95569 31.6682 1.89406C29.7504 -0.021375 26.5003 0.0035625 23.3486 0C23.1812 0 19.8123 0.00237502 18.4062 0.00356252C18.0797 0.00356252 17.8125 0.269563 17.8125 0.594938C17.8125 0.920313 18.0773 1.18512 18.4051 1.18512C19.8004 1.18512 23.1859 1.18631 23.351 1.18512C26.2437 1.18394 29.2588 1.16612 30.8299 2.73481C31.6587 3.5625 32.0625 4.78919 32.0625 6.48494V10.0474C32.0625 10.3764 32.3285 10.6875 32.6562 10.6875H33.9827L31.4688 14.877L28.9548 10.6875H30.2812C30.609 10.6875 30.875 10.4215 30.875 10.0938C30.875 9.766 30.609 9.5 30.2812 9.5H27.9062C27.6925 9.5 27.4954 9.59144 27.3885 9.77787C27.284 9.96313 27.2864 10.1698 27.3968 10.3526L30.9593 16.2901C31.0674 16.4683 31.2598 16.5787 31.4688 16.5787C31.6777 16.5787 31.8701 16.4754 31.9782 16.2961L35.5407 10.3645C35.6511 10.1804 35.6535 9.96313 35.549 9.77787C35.4421 9.59144 35.245 9.5 35.0312 9.5Z" fill="white"/>
<path d="M17.22 34.4409C15.6905 34.4469 11.9736 34.4599 11.875 34.4611C9.09985 34.505 6.38523 34.3709 4.86404 32.8877C3.98767 32.0339 3.56254 30.7715 3.56254 29.0307V25.5062C3.56254 25.1784 3.29654 24.9789 2.96879 24.9789H1.64235L4.15629 20.768L6.67023 24.9777H5.34379C5.01604 24.9777 4.75004 25.2235 4.75004 25.5513C4.75004 25.879 5.01604 26.1652 5.34379 26.1652H7.71879C7.93254 26.1652 8.12966 26.0085 8.23654 25.822C8.34104 25.6356 8.33867 25.3862 8.22823 25.2022L4.66573 19.2659C4.45079 18.9084 3.86179 18.9132 3.64804 19.2694L0.08554 25.2152C-0.0248975 25.3981 -0.0272724 25.6439 0.0772276 25.8304C0.184103 26.0168 0.381228 26.164 0.594978 26.164H2.37504V29.0295C2.37504 31.0791 2.93435 32.6632 4.03516 33.7367C5.69885 35.36 8.3731 35.6249 11.0284 35.6249H17.2176C17.5454 35.6249 17.8125 35.3589 17.8125 35.0311C17.8125 34.7034 17.5465 34.4385 17.22 34.4409Z" fill="white"/>
</svg>
