<svg width="37" height="32" viewBox="0 0 37 32" fill="none" xmlns="http://www.w3.org/2000/svg">
<path d="M13.116 4.832V3.008C13.116 1.64 14.256 0.5 15.624 0.5H33.332C31.964 0.5 30.824 1.64 30.824 3.008V24.288C30.824 25.656 29.684 26.796 28.316 26.796C26.948 26.796 25.808 25.656 25.808 24.288" stroke="white" stroke-miterlimit="10" stroke-linecap="round" stroke-linejoin="round"/>
<path d="M28.3161 26.7959H20.7161V7.26386C20.7161 5.89586 21.8561 4.75586 23.2241 4.75586C24.5921 4.75586 25.7321 5.89586 25.7321 7.26386V24.2879C25.8081 25.6559 26.9481 26.7959 28.3161 26.7959Z" stroke="white" stroke-miterlimit="10" stroke-linecap="round" stroke-linejoin="round"/>
<path d="M23.3 4.83186C21.932 4.83186 20.792 5.97186 20.792 7.33986V28.8479C20.792 30.2159 19.652 31.3559 18.284 31.3559C16.916 31.3559 15.776 30.2159 15.776 28.8479V27.7839H3.08398V7.26386C3.08398 5.89586 4.22398 4.75586 5.59198 4.75586L23.3 4.83186Z" stroke="white" stroke-miterlimit="10" stroke-linecap="round" stroke-linejoin="round"/>
<path d="M18.208 31.28H3.008C1.64 31.28 0.5 30.14 0.5 28.772V27.708H15.7V28.848C15.7 30.216 16.84 31.28 18.208 31.28Z" stroke="white" stroke-miterlimit="10" stroke-linecap="round" stroke-linejoin="round"/>
<path d="M33.332 0.576172C34.7 0.576172 35.84 1.71617 35.84 3.08417V19.8042H30.824" stroke="white" stroke-miterlimit="10" stroke-linecap="round" stroke-linejoin="round"/>
<path d="M9.46788 12.7363H7.56788C6.88388 12.7363 6.27588 12.1283 6.27588 11.4443C6.27588 10.7603 6.88388 10.1523 7.56788 10.1523H9.39188C10.0759 10.1523 10.6839 10.7603 10.6839 11.4443" stroke="white" stroke-miterlimit="10" stroke-linecap="round" stroke-linejoin="round"/>
<path d="M7.56788 12.7363H9.39188C10.0759 12.7363 10.6839 13.3443 10.6839 14.0283C10.6839 14.7123 10.0759 15.3203 9.39188 15.3203H7.56788C6.88388 15.3203 6.27588 14.7123 6.27588 14.0283" stroke="white" stroke-miterlimit="10" stroke-linecap="round" stroke-linejoin="round"/>
<path d="M8.47998 10.1523V9.46826" stroke="white" stroke-miterlimit="10" stroke-linecap="round" stroke-linejoin="round"/>
<path d="M8.47998 16.0043V15.3203" stroke="white" stroke-miterlimit="10" stroke-linecap="round" stroke-linejoin="round"/>
<path d="M12.8879 8.93604H17.5239" stroke="white" stroke-miterlimit="10" stroke-linecap="round" stroke-linejoin="round"/>
<path d="M12.8879 11.4438H17.5239" stroke="white" stroke-miterlimit="10" stroke-linecap="round" stroke-linejoin="round"/>
<path d="M12.8879 13.9521H17.5239" stroke="white" stroke-miterlimit="10" stroke-linecap="round" stroke-linejoin="round"/>
<path d="M12.8879 16.46H17.5239" stroke="white" stroke-miterlimit="10" stroke-linecap="round" stroke-linejoin="round"/>
<path d="M6.27588 18.8921H17.5239" stroke="white" stroke-miterlimit="10" stroke-linecap="round" stroke-linejoin="round"/>
<path d="M6.27588 21.3999H17.5239" stroke="white" stroke-miterlimit="10" stroke-linecap="round" stroke-linejoin="round"/>
<path d="M6.27588 23.9082H17.5239" stroke="white" stroke-miterlimit="10" stroke-linecap="round" stroke-linejoin="round"/>
</svg>
